<svg width="48" height="44" viewBox="0 0 48 44" fill="none" xmlns="http://www.w3.org/2000/svg">
<path d="M47.9998 19.3188L0 18.8855V34.7441C0.0147572 36.1984 1.35364 37.5883 3.38074 38.8064L6.59513 40.3264C7.57716 40.6993 8.64907 41.0428 9.8055 41.354L14.615 42.3763C15.6762 42.5467 16.7816 42.6875 17.9153 42.8056L30.4294 42.9237C31.5938 42.823 32.7288 42.6996 33.8155 42.5413L38.6049 41.5928C39.7546 41.299 40.8211 40.9717 41.7951 40.6135L44.98 39.1404C47.0017 37.9424 48.0146 36.5606 47.9998 35.0983V19.3188Z" fill="#C3D3E2"/>
<path d="M30.5958 37.392C30.5381 31.5428 27.6578 30.0536 24.1228 30.0228C20.5891 29.9906 17.7382 31.4274 17.7959 37.2766C17.8174 39.4312 17.8576 41.2477 17.9153 42.8039C19.933 43.0132 22.046 43.1446 24.2368 43.1647C26.3833 43.1835 28.4506 43.0923 30.4294 42.9233C30.5596 41.5777 30.62 39.7827 30.5958 37.392ZM14.54 34.7652L14.5413 34.9088L14.5453 35.3971L14.5494 35.7607L14.5507 35.8479C14.5507 35.9069 14.552 35.9176 14.5507 35.8479L14.5494 35.7607L14.5453 35.3971L14.5413 34.9088L14.54 34.7652L14.5386 34.6015C14.5091 31.6769 9.69557 30.1704 9.72375 33.0963V33.1459L9.72643 33.4196L9.72911 33.6316L9.73582 34.2621L9.73716 34.352L9.80558 41.3523C11.2894 41.7507 12.8939 42.0982 14.6151 42.3746L14.54 34.6565V34.7652ZM38.5244 33.4344L38.5312 34.1132V34.1494L38.5352 34.5117C38.5365 34.67 38.5365 34.7129 38.5352 34.5117L38.5312 34.1494V34.1132L38.5244 33.4344L38.5231 33.3566C38.4936 30.432 33.7082 31.85 33.7377 34.7746V34.8229L33.8142 42.5409C35.5301 42.2914 37.1279 41.9694 38.6036 41.5924L38.5231 33.4089L38.5244 33.4344ZM6.50936 31.6045C6.47984 28.6799 3.2668 27.1881 3.29497 30.1127V30.1677L3.37949 38.806C4.28638 39.3507 5.36903 39.8591 6.59387 40.326L6.52411 33.1875C6.52814 33.4666 6.53216 33.9683 6.50936 31.6045ZM41.708 31.9224L41.7241 33.4478L41.7952 40.6118C43.0106 40.1637 44.0826 39.6713 44.9801 39.1387L44.8942 30.4883C44.866 27.5637 41.6798 28.9978 41.708 31.9224ZM3.88123 3.01709C3.51096 3.01709 3.21045 3.3176 3.21045 3.68787V20.283C3.21045 20.6533 3.51096 20.9538 3.88123 20.9538C4.2515 20.9538 4.55201 20.6533 4.55201 20.283V3.68787C4.55201 3.31626 4.25284 3.01709 3.88123 3.01709Z" fill="#456AA0"/>
<path d="M4.19647 3.97095C6.1793 4.33183 9.13611 5.44935 9.89275 5.88134C10.6494 6.31332 10.1812 6.53065 9.46076 6.85397C8.739 7.17863 4.84444 8.22371 4.26891 8.33237C3.6907 8.44238 4.19647 3.97095 4.19647 3.97095Z" fill="#2ACEF2"/>
<path d="M15.9511 0C15.5808 0 15.2803 0.30051 15.2803 0.670782V17.2659C15.2803 17.6362 15.5808 17.9367 15.9511 17.9367C16.3213 17.9367 16.6218 17.6362 16.6218 17.2659V0.670782C16.6218 0.299169 16.3213 0 15.9511 0Z" fill="#456AA0"/>
<path d="M16.265 0.953857C18.2478 1.31474 21.2046 2.43226 21.9626 2.86559C22.7192 3.29757 22.251 3.5149 21.5306 3.83822C20.8088 4.16288 16.9156 5.20796 16.3388 5.31663C15.7592 5.42529 16.265 0.953857 16.265 0.953857Z" fill="#84FAA4"/>
<path d="M28.5219 0C28.1516 0 27.8511 0.30051 27.8511 0.670782V17.2659C27.8511 17.6362 28.1516 17.9367 28.5219 17.9367C28.8921 17.9367 29.1926 17.6362 29.1926 17.2659V0.670782C29.1926 0.299169 28.8921 0 28.5219 0Z" fill="#456AA0"/>
<path d="M28.8371 0.953857C30.8199 1.31474 33.7754 2.43226 34.5333 2.86559C35.29 3.29757 34.8218 3.5149 34.1014 3.83822C33.3809 4.16288 29.4864 5.20796 28.9082 5.31663C28.3299 5.42529 28.8371 0.953857 28.8371 0.953857Z" fill="#2ACEF2"/>
<path d="M40.5902 3.01709C40.2199 3.01709 39.9194 3.3176 39.9194 3.68787V20.283C39.9194 20.6533 40.2199 20.9538 40.5902 20.9538C40.9605 20.9538 41.261 20.6533 41.261 20.283V3.68787C41.261 3.31626 40.9605 3.01709 40.5902 3.01709Z" fill="#456AA0"/>
<path d="M40.9058 3.97095C42.8886 4.33183 45.8441 5.44935 46.6021 5.88268C47.3587 6.31466 46.8905 6.53199 46.1701 6.85531C45.4497 7.17997 41.5551 8.22505 40.9769 8.33371C40.4 8.44238 40.9058 3.97095 40.9058 3.97095Z" fill="#84FAA4"/>
<path d="M47.9996 19.4096C48.0439 23.8528 37.3355 27.357 24.0809 27.2376C10.8249 27.1182 0.0440434 23.4168 0.00111333 18.9763C-0.0431583 14.533 10.6665 11.0288 23.9212 11.1482C37.1745 11.269 47.9553 14.9677 47.9996 19.4096Z" fill="#E9EFF3"/>
<path d="M44.5105 20.4363C44.5494 24.4543 35.404 27.6285 24.0839 27.5279C12.7611 27.4246 3.55124 24.0841 3.51233 20.0661C3.47343 16.0494 12.6175 12.8753 23.9403 12.9772C35.2591 13.0805 44.4716 16.4197 44.5105 20.4363Z" fill="#2ACEF2"/>
<path d="M35.8022 22.0041L43.6235 16.7197L41.2087 15.236C41.2087 15.236 36.3388 19.7892 34.7397 21.3374C33.5645 20.727 31.9586 20.2145 30.063 19.8563L33.335 12.742L30.0308 12.3476L28.5631 19.6175C27.1424 19.423 25.609 19.3049 24.0004 19.2902C22.7555 19.2794 21.5548 19.3317 20.4171 19.4324L18.83 12.2456L15.5338 12.5823L18.8757 19.6054C16.6755 19.9086 14.8013 20.4157 13.4611 21.061C11.756 19.4149 6.95854 14.9261 6.95854 14.9261L4.57324 16.3669L12.3731 21.7063C11.6473 22.2389 11.2368 22.8332 11.2422 23.4651C11.2663 25.8343 17.0149 27.8078 24.085 27.8722C31.1523 27.9365 36.866 26.0664 36.8432 23.6959C36.8379 23.0989 36.4663 22.526 35.8022 22.0041Z" fill="#E9EFF3"/>
<path d="M35.3474 23.9955C35.3649 25.7677 30.3407 27.1576 24.1279 27.1012C17.9152 27.0449 12.8642 25.5638 12.8467 23.7916C12.8293 22.0207 17.8521 20.6309 24.0649 20.6872C30.2763 20.7422 35.3287 22.2246 35.3474 23.9955Z" fill="#84FAA4"/>
</svg>
